<svg width="80" height="80" viewBox="0 0 80 80" fill="none" xmlns="http://www.w3.org/2000/svg">
<rect x="0.000976562" width="80" height="80" fill="#F2F1FE"/>
<path d="M48.7802 20.6938L57.4124 23.5882L57.971 34.3024V43.2901L53.8072 51.9224L48.0693 57.0002L39.5385 60.8594L34.4099 59.2345C31.7356 56.8648 26.3463 52.0849 26.1838 51.9224C26.0214 51.7599 23.8819 46.5738 22.8325 44.001L22.2739 31.6111L22.8325 23.8421L32.3788 20.6938L40.808 19.1197L48.7802 20.6938Z" fill="white"/>
<path d="M40.002 61.6718C39.1709 61.6722 38.3469 61.5191 37.5713 61.2204L35.6913 60.498C26.9273 57.1264 21.0401 48.5538 21.0401 39.1649V25.4166C21.0369 24.6395 21.2577 23.8779 21.676 23.223C22.0942 22.5681 22.6923 22.0475 23.3986 21.7235C28.5231 19.4777 34.0585 18.3215 39.6535 18.3284L40.0129 18.3302L40.3506 18.3284C45.9723 18.3284 51.4334 19.4679 56.582 21.7127C57.2941 22.0362 57.8975 22.5586 58.3198 23.217C58.742 23.8753 58.9651 24.6417 58.9622 25.4238V39.1649C58.9622 48.5538 53.075 57.1264 44.3109 60.498L42.431 61.2204C41.6561 61.5193 40.8326 61.6724 40.002 61.6718V61.6718ZM39.6499 21.0373C34.4369 21.0309 29.2793 22.107 24.5038 24.1976C24.275 24.305 24.0821 24.4761 23.9482 24.6904C23.8143 24.9047 23.7451 25.1531 23.7489 25.4057V39.1649C23.7489 47.4413 28.9391 54.999 36.6629 57.9697L38.5429 58.6921C39.4815 59.0558 40.5221 59.0564 41.4612 58.6939L43.3411 57.9715C51.065 54.9972 56.2551 47.4413 56.2551 39.1649V25.4148C56.2575 25.1571 56.1855 24.9042 56.0478 24.6864C55.91 24.4686 55.7124 24.2951 55.4786 24.1867C50.7214 22.1038 45.5835 21.0313 40.3903 21.0373L40.0147 21.0391L39.6499 21.0373Z" fill="#1E1B42"/>
<path d="M48.8468 34.1031L37.0528 45.8971L31.1558 40.0001" stroke="#5D4FFF" stroke-width="5"/>
</svg>
