<svg width="80" height="80" viewBox="0 0 80 80" fill="none" xmlns="http://www.w3.org/2000/svg">
<rect width="79.5" height="79.5" fill="#F2F1FE"/>
<path d="M57.9391 20.979H23.6323L18.3911 23.8379L16.1279 27.1732L30.065 40.872L27.6826 43.9692V50.759L30.065 55.5238L36.7357 59.3357H44.7168L51.3875 53.8561L52.6978 46.7089L50.4345 40.872L64.3716 27.1732L57.9391 20.979Z" fill="white"/>
<path d="M39.7497 59.3357C46.5487 59.3357 52.0604 53.824 52.0604 47.025C52.0604 40.2259 46.5487 34.7143 39.7497 34.7143C32.9507 34.7143 27.439 40.2259 27.439 47.025C27.439 53.824 32.9507 59.3357 39.7497 59.3357Z" stroke="#181443" stroke-width="2.23835" stroke-miterlimit="10" stroke-linecap="round" stroke-linejoin="round"/>
<path d="M21.8423 20.1646H57.6564" stroke="#181443" stroke-width="2.23835" stroke-miterlimit="10" stroke-linecap="round" stroke-linejoin="round"/>
<path d="M30.7964 29.1183H48.7031" stroke="#5D4FFF" stroke-width="2.23835" stroke-miterlimit="10" stroke-linecap="round" stroke-linejoin="round" stroke-dasharray="5.6 5.6"/>
<path d="M46.1462 46.1295C46.4094 45.871 46.5027 45.4949 46.3891 45.144C46.2747 44.793 45.9786 44.5423 45.6135 44.4898L42.3686 44.0182C42.2299 43.997 42.1108 43.9109 42.0489 43.7863L40.598 40.8461C40.4351 40.5155 40.1037 40.3102 39.7355 40.3102C39.3673 40.3102 39.0367 40.5163 38.8729 40.8461L37.422 43.7863C37.3601 43.9109 37.2411 43.9986 37.1024 44.0182L33.8575 44.4898C33.4916 44.5423 33.1939 44.7922 33.0803 45.144C32.9675 45.4949 33.0607 45.8725 33.3239 46.1295L35.6726 48.4171C35.7721 48.515 35.8184 48.6553 35.7941 48.7931L35.2402 52.0248C35.1916 52.3091 35.266 52.5873 35.4501 52.8043C35.7377 53.1451 36.2367 53.2485 36.6363 53.0377L39.538 51.5124C39.6595 51.4482 39.8115 51.4497 39.9337 51.5124L42.8363 53.0377C42.9765 53.1121 43.1269 53.1505 43.2828 53.1505C43.5656 53.1505 43.8359 53.0244 44.0208 52.8043C44.2041 52.5873 44.2793 52.3091 44.2307 52.0248L43.6769 48.7931C43.6534 48.6553 43.6988 48.515 43.7983 48.4171L46.1462 46.1295Z" fill="#5D4FFF" stroke="#5D4FFF" stroke-width="2.23835" stroke-miterlimit="10" stroke-linecap="round" stroke-linejoin="round"/>
<path d="M29.0055 40.3095L15.1279 26.4319L21.3953 20.1646L35.9442 34.7143" stroke="#181443" stroke-width="2.23835" stroke-miterlimit="10" stroke-linecap="round" stroke-linejoin="round"/>
<path d="M50.4938 40.3095L64.3714 26.4319L58.104 20.1646L43.1069 35.1616" stroke="#181443" stroke-width="2.23835" stroke-miterlimit="10" stroke-linecap="round" stroke-linejoin="round"/>
</svg>
