<svg width="80" height="80" viewBox="0 0 80 80" fill="none" xmlns="http://www.w3.org/2000/svg">
<rect y="0.429932" width="79.5" height="79.5" fill="#F2F1FE"/>
<path d="M63.5292 37.9234L49.1805 22.8916L44.3002 28.0649L42.5433 27.5768L36.2962 26.0151L32.2942 26.8936L30.3421 24.8438L15.603 39.1924L23.9975 47.4892L23.3141 50.3199L36.2962 62.9115L40.6886 61.8378L52.7922 50.3199V47.4892L63.5292 37.9234Z" fill="white"/>
<path d="M46.7642 33.6537C44.8181 35.5998 41.6636 35.5998 39.7184 33.6537L36.195 37.1771C35.222 38.1501 33.6447 38.1501 32.6717 37.1771C31.6986 36.204 31.6986 34.6268 32.6717 33.6537L37.9563 28.3691C39.9023 26.423 43.0569 26.423 45.0021 28.3691L47.6439 25.7273" stroke="#181443" stroke-width="2.49114" stroke-miterlimit="10" stroke-linecap="round" stroke-linejoin="round"/>
<path d="M38.8361 62.7185C37.8631 63.6916 36.2858 63.6916 35.3128 62.7185C34.3397 61.7455 34.3397 60.1682 35.3128 59.1952C36.2858 58.2221 37.8631 58.2221 38.8361 59.1952C39.8092 60.1682 39.8092 61.7455 38.8361 62.7185Z" stroke="#181443" stroke-width="2.49114" stroke-miterlimit="10" stroke-linecap="round" stroke-linejoin="round"/>
<path d="M56.4517 45.1035L61.7362 39.8189" stroke="#181443" stroke-width="2.49114" stroke-miterlimit="10" stroke-linecap="round" stroke-linejoin="round"/>
<path d="M35.3142 59.1952C34.3411 60.1682 32.7639 60.1682 31.7908 59.1952C30.8178 58.2221 30.8178 56.6449 31.7908 55.6718C32.7639 54.6988 34.3411 54.6988 35.3142 55.6718C36.2872 56.6449 36.2872 58.2221 35.3142 59.1952Z" stroke="#181443" stroke-width="2.49114" stroke-miterlimit="10" stroke-linecap="round" stroke-linejoin="round"/>
<path d="M31.7912 55.6727C30.8182 56.6457 29.2409 56.6457 28.2679 55.6727C27.2948 54.6996 27.2948 53.1224 28.2679 52.1493C29.2409 51.1763 30.8182 51.1763 31.7912 52.1493C32.7643 53.1224 32.7643 54.6996 31.7912 55.6727Z" stroke="#181443" stroke-width="2.49114" stroke-miterlimit="10" stroke-linecap="round" stroke-linejoin="round"/>
<path d="M28.2683 52.1493C27.2952 53.1224 25.718 53.1224 24.7449 52.1493C23.7719 51.1763 23.7719 49.599 24.7449 48.626C25.718 47.6529 27.2952 47.6529 28.2683 48.626C29.2404 49.599 29.2404 51.1763 28.2683 52.1493Z" stroke="#181443" stroke-width="2.49114" stroke-miterlimit="10" stroke-linecap="round" stroke-linejoin="round"/>
<path d="M39.6065 26.7186C37.6962 25.5904 35.1938 25.8467 33.552 27.4885L30.9102 24.8466" stroke="#181443" stroke-width="2.49114" stroke-miterlimit="10" stroke-linecap="round" stroke-linejoin="round"/>
<path d="M39.7183 61.8379C40.6913 62.8109 42.2686 62.8109 43.2416 61.8379C44.2147 60.8649 44.2147 59.2876 43.2416 58.3146" stroke="#181443" stroke-width="2.49114" stroke-miterlimit="10" stroke-linecap="round" stroke-linejoin="round"/>
<path d="M25.6254 47.7454L16.8184 38.9383" stroke="#181443" stroke-width="2.49114" stroke-miterlimit="10" stroke-linecap="round" stroke-linejoin="round"/>
<path d="M43.2402 58.3145C44.2133 59.2876 45.7905 59.2876 46.7636 58.3145C47.7366 57.3415 47.7366 55.7642 46.7636 54.7912" stroke="#181443" stroke-width="2.49114" stroke-miterlimit="10" stroke-linecap="round" stroke-linejoin="round"/>
<path d="M46.7632 54.7912C47.7362 55.7642 49.3135 55.7642 50.2865 54.7912C51.2596 53.8182 51.2596 52.2409 50.2865 51.2678" stroke="#181443" stroke-width="2.49114" stroke-miterlimit="10" stroke-linecap="round" stroke-linejoin="round"/>
<path d="M50.2861 51.2687C51.2592 52.2418 52.8364 52.2418 53.8095 51.2687C54.7825 50.2957 54.7825 48.7184 53.8095 47.7454" stroke="#181443" stroke-width="2.49114" stroke-miterlimit="10" stroke-linecap="round" stroke-linejoin="round"/>
<path d="M50.2865 51.2687L45.002 45.9841" stroke="#181443" stroke-width="2.49114" stroke-miterlimit="10" stroke-linecap="round" stroke-linejoin="round"/>
<path d="M46.7641 54.7912L41.4795 49.5075" stroke="#181443" stroke-width="2.49114" stroke-miterlimit="10" stroke-linecap="round" stroke-linejoin="round"/>
<path d="M43.2406 58.3146L37.9561 53.03" stroke="#181443" stroke-width="2.49114" stroke-miterlimit="10" stroke-linecap="round" stroke-linejoin="round"/>
<path d="M53.8092 47.7454L44.1206 38.0577" stroke="#181443" stroke-width="2.49114" stroke-miterlimit="10" stroke-linecap="round" stroke-linejoin="round"/>
<path d="M27.3055 17.7607L32.7115 23.1666C33.1804 23.6356 33.1804 24.3959 32.7115 24.8648L16.8368 40.7394C16.3679 41.2084 15.6076 41.2084 15.1387 40.7394L9.73273 35.3335C9.26379 34.8646 9.26379 34.1043 9.73273 33.6353L25.6073 17.7607C26.0763 17.2918 26.8366 17.2918 27.3055 17.7607Z" fill="#5D4FFF"/>
<path d="M52.1945 17.7607L46.7885 23.1666C46.3196 23.6356 46.3196 24.3959 46.7885 24.8648L62.6632 40.7394C63.1321 41.2084 63.8924 41.2084 64.3613 40.7394L69.7673 35.3335C70.2362 34.8646 70.2362 34.1043 69.7673 33.6353L53.8927 17.7607C53.4237 17.2918 52.6634 17.2918 52.1945 17.7607Z" fill="#5D4FFF"/>
</svg>
