<svg width="74" height="74" viewBox="0 0 74 74" fill="none" xmlns="http://www.w3.org/2000/svg">
<rect width="74" height="74" fill="#5D4FFF"/>
<path d="M29.67 48.27C30.56 49.43 31.45 50.66 32.32 52.03C35.49 56.93 34.61 59.87 36.66 59.87C38.71 59.87 37.83 56.93 41 52.02C46.22 43.85 52.31 40.14 52.31 30.65C52.31 28.05 51.67 25.59 50.55 23.43L50.54 23.44C48.62 19.76 45.34 16.99 41.38 15.74L41.39 15.73C39.9 15.26 38.31 15 36.66 15C31.85 15 27.55 17.17 24.67 20.59C22.3 23.41 21 26.97 21 30.65C21 33.59 21.59 35.98 22.55 38.12C24.18 41.73 26.88 44.62 29.66 48.27H29.67ZM42.59 31.46C42.45 32.53 42.02 33.55 41.34 34.39L41.23 34.53L41.19 34.57L41.14 34.62C40.6 35.24 39.93 35.75 39.18 36.09C38.39 36.46 37.53 36.65 36.66 36.65C33.36 36.65 30.67 33.96 30.67 30.66C30.67 29.25 31.17 27.89 32.07 26.82C32.63 26.14 33.33 25.6 34.13 25.23C34.92 24.86 35.78 24.67 36.66 24.67C37.8 24.67 38.92 25 39.88 25.62C40.84 26.23 41.61 27.11 42.09 28.14C42.57 29.18 42.74 30.33 42.59 31.46Z" fill="white"/>
</svg>
