<svg width="74" height="74" viewBox="0 0 74 74" fill="none" xmlns="http://www.w3.org/2000/svg">
<rect width="74" height="74" fill="#5D4FFF"/>
<path d="M43.9313 20.5654V20.558H45.852L46.5538 20.6987C47.0216 20.7901 47.4464 20.9099 47.828 21.0581C48.2097 21.2062 48.5791 21.3791 48.9361 21.5767C49.2932 21.7742 49.617 21.9755 49.9075 22.1805C50.1956 22.383 50.4542 22.5978 50.6832 22.825C50.9097 23.0547 51.263 23.114 51.7432 23.0028C52.2234 22.8917 52.7405 22.7373 53.2945 22.5398C53.8485 22.3422 54.3964 22.12 54.9381 21.873C55.4799 21.6261 55.8099 21.4692 55.9281 21.4026C56.0438 21.3334 56.1053 21.2964 56.1127 21.2914L56.1201 21.2803L56.157 21.2618L56.194 21.2433L56.2309 21.2248L56.2678 21.2062L56.2752 21.1951L56.2863 21.1877L56.2974 21.1803L56.3048 21.1692L56.3417 21.1581L56.3786 21.1507L56.3713 21.2062L56.3602 21.2618L56.3417 21.3174L56.3232 21.3729L56.3048 21.41L56.2863 21.447L56.2678 21.5026C56.2555 21.5396 56.2432 21.589 56.2309 21.6508C56.2186 21.7125 56.1016 21.9594 55.88 22.3916C55.6584 22.8238 55.3814 23.2621 55.049 23.7067C54.7165 24.1512 54.4186 24.487 54.1551 24.7142C53.8892 24.9439 53.7131 25.1044 53.6269 25.1958C53.5408 25.2896 53.4361 25.376 53.313 25.4551L53.1283 25.5773L53.0914 25.5959L53.0544 25.6144L53.0471 25.6255L53.036 25.6329L53.0249 25.6403L53.0175 25.6514L52.9806 25.6699L52.9436 25.6885L52.9363 25.6996L52.9252 25.707L52.9141 25.7144L52.9067 25.7255L52.8993 25.7366L52.8882 25.744L52.8771 25.7514L52.8697 25.7626H53.0544L54.0886 25.5403C54.7781 25.3921 55.4368 25.2131 56.0647 25.0032L57.0619 24.6698L57.1728 24.6327L57.2282 24.6142L57.2651 24.5957L57.302 24.5772L57.339 24.5587L57.3759 24.5401L57.4498 24.529L57.5236 24.5216V24.5957L57.5052 24.6031L57.4867 24.6142L57.4794 24.6253L57.4682 24.6327L57.4572 24.6401L57.4498 24.6513L57.4424 24.6624L57.4313 24.6698L57.4202 24.6772L57.4128 24.6883L57.4055 24.6994L57.3944 24.7068L57.3759 24.7439L57.3574 24.7809L57.3463 24.7883C57.3414 24.7957 57.1851 25.0056 56.8773 25.4181C56.5695 25.8329 56.4033 26.0428 56.3786 26.0478C56.354 26.0552 56.3195 26.0922 56.2752 26.1589C56.2334 26.228 55.9723 26.5034 55.4922 26.985C55.012 27.4665 54.5418 27.895 54.0813 28.2704C53.6184 28.6482 53.3844 29.1125 53.3795 29.6632C53.3721 30.2114 53.3438 30.8313 53.2945 31.5228C53.2453 32.2143 53.1529 32.9613 53.0175 33.7639C52.8821 34.5665 52.6728 35.4741 52.3896 36.4866C52.1064 37.4991 51.7617 38.4869 51.3554 39.45C50.9491 40.4132 50.5243 41.2775 50.0811 42.0431C49.6379 42.8086 49.2316 43.4569 48.8622 43.9878C48.4929 44.5188 48.1174 45.0188 47.7357 45.4881C47.354 45.9573 46.8714 46.4858 46.2879 47.0735C45.7018 47.6588 45.3817 47.9799 45.3275 48.0366C45.2709 48.091 45.0296 48.2935 44.6036 48.6442C44.18 48.9973 43.7245 49.3504 43.2369 49.7036C42.7519 50.0543 42.3062 50.3469 41.8999 50.5815C41.4936 50.8161 41.0036 51.084 40.4298 51.3854C39.8586 51.6891 39.2405 51.9706 38.5757 52.2299C37.9108 52.4892 37.209 52.73 36.4703 52.9523C35.7316 53.1745 35.0175 53.3474 34.3281 53.4709C33.6386 53.5944 32.8568 53.6993 31.9826 53.7858L30.6714 53.9154V53.9339H28.2706V53.9154L27.9567 53.8969C27.7474 53.8846 27.575 53.8722 27.4396 53.8598C27.3042 53.8475 26.7932 53.7796 25.9067 53.6561C25.0203 53.5326 24.3247 53.4091 23.8199 53.2857C23.3151 53.1622 22.5641 52.9276 21.5668 52.5819C20.5695 52.2361 19.7163 51.8867 19.0072 51.5335C18.3005 51.1828 17.8572 50.9606 17.6775 50.8668C17.5002 50.7754 17.3007 50.6618 17.0791 50.526L16.7467 50.3222L16.7393 50.3111L16.7282 50.3037L16.7171 50.2963L16.7098 50.2852L16.6728 50.2666L16.6359 50.2481L16.6285 50.237L16.6174 50.2296L16.6063 50.2222L16.5989 50.2111L16.5916 50.2L16.5805 50.1926H16.562V50.1185L16.5989 50.1259L16.6359 50.137L16.8021 50.1555C16.9129 50.1679 17.2146 50.1864 17.707 50.2111C18.1995 50.2358 18.7227 50.2358 19.2768 50.2111C19.8308 50.1864 20.3972 50.1308 20.9758 50.0444C21.5545 49.958 22.2378 49.8098 23.0257 49.5999C23.8137 49.3899 24.5377 49.1405 25.1976 48.8516C25.8551 48.5602 26.3229 48.3429 26.6012 48.1996C26.8769 48.0589 27.298 47.7971 27.8643 47.4143L28.7138 46.8402L28.7212 46.829L28.7323 46.8216L28.7434 46.8142L28.7508 46.8031L28.7582 46.792L28.7692 46.7846L28.7804 46.7772L28.7877 46.7661L28.8246 46.755L28.8616 46.7475L28.869 46.7105L28.88 46.6735L28.8912 46.666L28.8985 46.6549L28.603 46.6364C28.4061 46.6241 28.2152 46.6117 28.0305 46.5994C27.8459 46.587 27.5565 46.5315 27.1625 46.4327C26.7686 46.3339 26.3438 46.1857 25.8883 45.9882C25.4327 45.7906 24.9895 45.556 24.5586 45.2843C24.1277 45.0127 23.8162 44.7867 23.6241 44.6064C23.4345 44.4286 23.1883 44.1767 22.8854 43.8508C22.585 43.5223 22.324 43.1852 22.1024 42.8395C21.8807 42.4938 21.669 42.0949 21.4671 41.643L21.1605 40.9688L21.142 40.9132L21.1236 40.8577L21.1125 40.8206L21.1051 40.7836L21.1605 40.791L21.2159 40.8021L21.6222 40.8577C21.8931 40.8947 22.3178 40.907 22.8965 40.8947C23.4751 40.8824 23.8753 40.8577 24.0969 40.8206C24.3185 40.7836 24.4539 40.7589 24.5032 40.7465L24.577 40.728L24.6694 40.7095L24.7617 40.691L24.7691 40.6799L24.7802 40.6725L24.7913 40.665L24.7987 40.6539L24.7248 40.6354L24.6509 40.6169L24.577 40.5984L24.5032 40.5798L24.4293 40.5613C24.3801 40.549 24.2939 40.5243 24.1708 40.4872C24.0476 40.4502 23.7152 40.3144 23.1735 40.0798C22.6318 39.8452 22.2009 39.6167 21.8807 39.3945C21.5598 39.1716 21.2538 38.9278 20.9647 38.6647C20.6766 38.398 20.3603 38.0547 20.0155 37.6349C19.6708 37.2151 19.363 36.7274 19.0921 36.1717C18.8213 35.6161 18.6181 35.0851 18.4827 34.5788C18.3478 34.0756 18.2588 33.561 18.2168 33.0416L18.1502 32.2636L18.1872 32.2711L18.2241 32.2822L18.2611 32.3007L18.298 32.3192L18.3349 32.3377L18.3719 32.3563L18.9444 32.6156C19.3261 32.7884 19.8 32.9366 20.3664 33.0601C20.9328 33.1835 21.2713 33.2515 21.3821 33.2638L21.5483 33.2823H21.8807L21.8734 33.2712L21.8623 33.2638L21.8512 33.2564L21.8438 33.2453L21.8365 33.2342L21.8253 33.2268L21.8143 33.2194L21.8069 33.2082L21.7699 33.1897L21.733 33.1712L21.7257 33.1601L21.7145 33.1527L21.7035 33.1453L21.6961 33.1342L21.6591 33.1156L21.6222 33.0971L21.6148 33.086C21.6075 33.081 21.5016 33.002 21.2972 32.8489C21.0952 32.6933 20.8835 32.4921 20.6619 32.2451C20.4403 31.9982 20.2186 31.7389 19.997 31.4672C19.775 31.195 19.5773 30.9037 19.4061 30.5967C19.2337 30.288 19.0515 29.8953 18.8594 29.4187C18.6698 28.9446 18.5258 28.4667 18.4273 27.9852C18.3288 27.5036 18.2734 27.0282 18.2611 26.559C18.2488 26.0898 18.2611 25.6885 18.298 25.3551C18.3349 25.0217 18.4088 24.6451 18.5196 24.2253C18.6304 23.8055 18.7905 23.3609 18.9998 22.8917L19.3137 22.1879L19.3322 22.1323L19.3507 22.0768L19.3618 22.0693L19.3691 22.0582L19.3765 22.0471L19.3876 22.0397L19.3987 22.0471L19.4061 22.0582L19.4134 22.0693L19.4245 22.0768L19.4356 22.0842L19.443 22.0953L19.4504 22.1064L19.4615 22.1138L19.4799 22.1508L19.4984 22.1879L19.5095 22.1953L19.5169 22.2064L20.0155 22.7621C20.3479 23.1325 20.7419 23.5461 21.1974 24.003C21.653 24.4599 21.9054 24.6969 21.9546 24.7142C22.0039 24.734 22.0654 24.7908 22.1393 24.8846C22.2132 24.976 22.4594 25.1946 22.878 25.5403C23.2966 25.886 23.8445 26.2873 24.5216 26.7442C25.1988 27.2011 25.9498 27.6518 26.7747 28.0963C27.5996 28.5408 28.4861 28.9421 29.4341 29.3002C30.3821 29.6583 31.047 29.8929 31.4286 30.004C31.8103 30.1151 32.4628 30.2571 33.3862 30.43C34.3096 30.6029 35.0052 30.714 35.4731 30.7634C35.9409 30.8128 36.261 30.8412 36.4334 30.8486L36.6919 30.856L36.6846 30.8004L36.6735 30.7449L36.5996 30.2818C36.5504 29.9731 36.5257 29.541 36.5257 28.9853C36.5257 28.4297 36.5688 27.9172 36.655 27.448C36.7412 26.9788 36.8705 26.5034 37.0428 26.0219C37.2152 25.5403 37.3839 25.1538 37.5488 24.8624C37.7163 24.5735 37.9354 24.2438 38.2063 23.8734C38.4772 23.5029 38.8281 23.1202 39.259 22.725C39.6899 22.3299 40.1824 21.978 40.7364 21.6693C41.2904 21.3606 41.8014 21.126 42.2692 20.9655C42.7371 20.805 43.1311 20.7 43.4512 20.6506C43.7713 20.6012 43.9313 20.5728 43.9313 20.5654V20.5654Z" fill="white"/>
</svg>
